<?xml version="1.0" encoding="utf-8"?>
<!-- Generator: Adobe Illustrator 21.0.0, SVG Export Plug-In . SVG Version: 6.00 Build 0)  -->
<svg version="1.1" id="Layer_1" xmlns="http://www.w3.org/2000/svg" xmlns:xlink="http://www.w3.org/1999/xlink" x="0px" y="0px"
	 viewBox="0 0 892.5 771.1" style="enable-background:new 0 0 892.5 771.1;" xml:space="preserve">
<style type="text/css">
	.st0{fill:url(#SVGID_1_);}
</style>
<linearGradient id="SVGID_1_" gradientUnits="userSpaceOnUse" x1="445.9222" y1="207.6223" x2="445.9222" y2="545.8882">
	<stop  offset="9.639640e-02" style="stop-color:#FF7100"/>
	<stop  offset="0.3919" style="stop-color:#F7A569"/>
	<stop  offset="0.5793" style="stop-color:#DDC4B1"/>
	<stop  offset="0.8243" style="stop-color:#BFE2F0"/>
</linearGradient>
<circle class="st0" cx="445.9" cy="348.4" r="195.6"/>
<g>
	<path d="M113.6,657.1c4.7-5,6.5-10.3,6.5-16.2c0-15.1-12.2-27.2-27.2-27.2H61.1v93.1h38.4c14.9,0,27.2-12.1,27.2-27.2
		C126.8,670.4,122.2,661.5,113.6,657.1z M76.8,629.4h16.1c6.4,0,11.5,5.3,11.5,11.8c0,6.6-5.2,11.6-11.5,11.6H76.8V629.4z M99.6,691
		H76.8v-23.5h22.7c6.4,0,11.5,5.1,11.5,11.6C111.1,685.9,105.9,691,99.6,691z"/>
	<path d="M134.1,706.8H153l7.3-16.9h37.5l7.3,16.9h18.9L179,611.3L134.1,706.8z M166.7,675.1l12.3-28.3l12.3,28.3H166.7z"/>
	<polygon points="316,613.7 299.6,613.7 299.6,706.8 352.7,706.8 352.7,691 316,691 	"/>
	<polygon points="251.9,613.7 235.4,613.7 235.4,706.8 288.6,706.8 288.6,691 251.9,691 	"/>
	<path d="M415.9,636.6c0-5.4,4.8-9.4,11.9-9.4c6.5,0,11.1,3.4,12.6,9.2l16.6-6.5c-4.1-10.4-15.5-17.4-29.6-17.4
		c-16.4,0-29.8,9.3-29.8,24.7c0,28.3,45.1,23.5,45.1,42.1c0,7.5-6.4,13.2-16,13.2c-8.6,0-15.7-4.6-18.1-12.2l-16.7,6.4
		c4.4,12.5,18.4,21.4,35.4,21.4c19.1,0,33.9-11.4,33.9-28.5C461.2,649.2,415.9,653.2,415.9,636.6z"/>
	<path d="M609.6,642.9c0-17.4-13.7-29.3-30.5-29.3h-36.1v93.1h16.4v-34.5h14.5l19.9,34.5h18.9l-22-36.4
		C601.7,666.3,609.6,656.2,609.6,642.9z M577.8,656.6h-18.5v-27.2h18.5c9.1,0,15.4,4.8,15.4,13.5
		C593.2,651.8,586.9,656.6,577.8,656.6z"/>
	<polygon points="699,706.8 759,706.8 759,691 715.3,691 715.3,668.1 754,668.1 754,652.4 715.3,652.4 715.3,629.4 759,629.4 
		759,613.7 699,613.7 	"/>
	<polygon points="623.6,706.8 683.5,706.8 683.5,691 639.8,691 639.8,668.1 678.5,668.1 678.5,652.4 639.8,652.4 639.8,629.4 
		683.5,629.4 683.5,613.7 623.6,613.7 	"/>
	<polygon points="764.9,613.7 764.9,629.4 790.5,629.4 790.5,706.8 807.2,706.8 807.2,629.4 832.6,629.4 832.6,613.7 	"/>
	<polygon points="467.1,629.4 492.6,629.4 492.6,706.8 509.4,706.8 509.4,629.4 534.8,629.4 534.8,613.7 467.1,613.7 	"/>
	<path d="M783.4,192c3.5-35-9-84.7-91-105.6c0,0,16.8,19.5,20.1,42.6c3.3,23.1-8.1,33.9-48.3,25.5c-37.6-7.9-114-6.8-142.8,0.9
		c-23.5-8.9-48.9-13.9-75.5-13.9c-26.6,0-52,4.9-75.5,13.9c-28.7-7.7-105.2-8.7-142.8-0.9c-40.2,8.4-51.6-2.4-48.3-25.5
		c3.3-23.1,20.1-42.6,20.1-42.6c-82,20.9-94.5,70.6-91,105.6s34.8,56.5,78.5,57.8c35.7,1.1,66-2.3,75.9-3.6
		c-18.7,31.7-29.5,68.6-29.5,108c0,117.3,95.4,212.7,212.7,212.7c117.3,0,212.7-95.4,212.7-212.7c0-39.4-10.8-76.3-29.5-108
		c9.9,1.3,40.1,4.7,75.9,3.6C748.7,248.5,779.9,227,783.4,192z M626.6,372.8c-6.3-6.9-14-14.4-23.4-21.9c-17.2-13.7-42-29-75.6-39.1
		c5.5-23.9,18.5-41.8,38.7-53.5c10.2-5.9,20.2-8.9,26.8-10.4c21.6,29.9,34.4,66.6,34.4,106.3C627.6,360.5,627.3,366.7,626.6,372.8z
		 M550.9,231.4c-19.9,11.5-44.1,33.2-53.4,73.2c-11.2-2-23.2-3.4-36-4V173.2c42.1,3.6,80.2,21.6,109.2,49
		C564.5,224.5,557.7,227.5,550.9,231.4z M265.2,372.8c-0.6-6.1-0.9-12.3-0.9-18.6c0-39.7,12.8-76.4,34.4-106.3
		c6.6,1.5,16.6,4.5,26.8,10.4c20.2,11.6,33.2,29.6,38.7,53.5c-33.6,10.1-58.4,25.4-75.6,39.1C279.2,358.4,271.5,365.9,265.2,372.8z
		 M394.4,304.6c-9.3-40-33.5-61.8-53.4-73.2c-6.8-3.9-13.6-6.9-19.8-9.1c29-27.5,67.1-45.5,109.2-49v127.4
		C417.6,301.3,405.6,302.7,394.4,304.6z M222.2,220.8c-33.7,3-81.2-4.6-83.9-32s12.2-43.2,12.2-43.2s-1.1,19.8,21.7,33.4
		c22.8,13.6,53.5,5.4,84.4,0c25.6-4.5,58.7-1.6,69.5-0.4c-16.6,11.3-31.4,24.9-44.2,40.3C267.8,218.7,244,218.8,222.2,220.8z
		 M273.7,412.2c11.3-17.6,55.9-75,156.7-80.4v203.5c-17.6-1.5-34.5-5.5-50.3-11.7c-14.9-13.1-20.2-43.4-13.4-78.1
		c5-25.7,16.6-65.8,23.8-89.9l-35.1,9.2c-6.9,23.7-15,53.4-19.2,74.8c-4.1,21.2-4.6,40.9-1.7,58.1
		C306.6,475.9,285.2,446.3,273.7,412.2z M557.4,497.6c2.9-17.2,2.5-36.9-1.7-58.1c-4.2-21.3-12.3-51-19.2-74.8l-35.1-9.2
		c7.2,24.1,18.7,64.1,23.8,89.9c6.8,34.7,1.5,64.9-13.4,78.1c-15.8,6.2-32.7,10.2-50.3,11.7V331.7c47.7,2.5,88.4,16.8,121.2,42.4
		c19.2,15.1,30.5,30.3,35.5,38C606.6,446.3,585.2,475.9,557.4,497.6z M669.7,220.8c-21.8-1.9-45.7-2-59.8-1.9
		c-12.8-15.4-27.6-29-44.2-40.3c10.8-1.2,43.9-4.1,69.5,0.4c31,5.4,61.6,13.6,84.4,0c22.8-13.6,21.7-33.4,21.7-33.4
		s14.9,15.7,12.2,43.2C750.8,216.2,703.3,223.8,669.7,220.8z"/>
</g>
</svg>
